<mxfile host="app.diagrams.net" agent="Mozilla/5.0 (Macintosh; Intel Mac OS X 10_15_7) AppleWebKit/537.36 (KHTML, like Gecko) Chrome/137.0.0.0 Safari/537.36 Edg/137.0.0.0" version="27.1.4">
  <diagram name="PÃ¡gina-1" id="AqzY-6GFsEjk-wBMrsei">
    <mxGraphModel dx="1024" dy="442" grid="1" gridSize="10" guides="1" tooltips="1" connect="1" arrows="1" fold="1" page="1" pageScale="1" pageWidth="1169" pageHeight="827" math="0" shadow="0">
      <root>
        <mxCell id="0" />
        <mxCell id="1" parent="0" />
        <mxCell id="cHn_flzbuspQxcIcsFyM-122" value="" style="ellipse;whiteSpace=wrap;html=1;strokeColor=#FFB366;" vertex="1" parent="1">
          <mxGeometry x="1940" y="1525.75" width="830" height="527.5" as="geometry" />
        </mxCell>
        <mxCell id="cHn_flzbuspQxcIcsFyM-1" value="" style="ellipse;whiteSpace=wrap;html=1;fillColor=#fff2cc;strokeColor=#000000;" vertex="1" parent="1">
          <mxGeometry x="1980" y="1766" width="280" height="194" as="geometry" />
        </mxCell>
        <mxCell id="cHn_flzbuspQxcIcsFyM-2" value="&lt;b&gt;br0&lt;/b&gt;" style="rounded=0;whiteSpace=wrap;html=1;" vertex="1" parent="1">
          <mxGeometry x="2010" y="1841" width="70" height="65" as="geometry" />
        </mxCell>
        <mxCell id="cHn_flzbuspQxcIcsFyM-3" value="" style="ellipse;shape=cloud;whiteSpace=wrap;html=1;strokeColor=light-dark(#2A59A7,#2A59A7);" vertex="1" parent="1">
          <mxGeometry x="1830" y="1952.5" width="320" height="247.5" as="geometry" />
        </mxCell>
        <mxCell id="cHn_flzbuspQxcIcsFyM-4" value="R13" style="shape=cylinder3;whiteSpace=wrap;html=1;boundedLbl=1;backgroundOutline=1;size=15;fontSize=13;fontStyle=0" vertex="1" parent="1">
          <mxGeometry x="2620" y="1835" width="60" height="60" as="geometry" />
        </mxCell>
        <mxCell id="cHn_flzbuspQxcIcsFyM-5" value="R3" style="shape=cylinder3;whiteSpace=wrap;html=1;boundedLbl=1;backgroundOutline=1;size=15;fontSize=13;fontStyle=0" vertex="1" parent="1">
          <mxGeometry x="2515" y="1750" width="60" height="60" as="geometry" />
        </mxCell>
        <mxCell id="cHn_flzbuspQxcIcsFyM-6" value="R7" style="shape=cylinder3;whiteSpace=wrap;html=1;boundedLbl=1;backgroundOutline=1;size=15;fontSize=13;fontStyle=0" vertex="1" parent="1">
          <mxGeometry x="2515" y="1922.5" width="60" height="60" as="geometry" />
        </mxCell>
        <mxCell id="cHn_flzbuspQxcIcsFyM-7" value="R6" style="shape=cylinder3;whiteSpace=wrap;html=1;boundedLbl=1;backgroundOutline=1;size=15;fontSize=13;fontStyle=0" vertex="1" parent="1">
          <mxGeometry x="2383.1" y="1922.5" width="60" height="60" as="geometry" />
        </mxCell>
        <mxCell id="cHn_flzbuspQxcIcsFyM-8" value="R5" style="shape=cylinder3;whiteSpace=wrap;html=1;boundedLbl=1;backgroundOutline=1;size=15;fontSize=13;fontStyle=0" vertex="1" parent="1">
          <mxGeometry x="2383.1" y="1835" width="60" height="60" as="geometry" />
        </mxCell>
        <mxCell id="cHn_flzbuspQxcIcsFyM-9" value="R4" style="shape=cylinder3;whiteSpace=wrap;html=1;boundedLbl=1;backgroundOutline=1;size=15;fontSize=13;fontStyle=0" vertex="1" parent="1">
          <mxGeometry x="2251.1" y="1922.5" width="60" height="60" as="geometry" />
        </mxCell>
        <mxCell id="cHn_flzbuspQxcIcsFyM-10" value="R11" style="shape=cylinder3;whiteSpace=wrap;html=1;boundedLbl=1;backgroundOutline=1;size=15;fontSize=13;fontStyle=0" vertex="1" parent="1">
          <mxGeometry x="2150" y="1834.5" width="60" height="60" as="geometry" />
        </mxCell>
        <mxCell id="cHn_flzbuspQxcIcsFyM-11" value="R1" style="shape=cylinder3;whiteSpace=wrap;html=1;boundedLbl=1;backgroundOutline=1;size=15;fontSize=13;fontStyle=0" vertex="1" parent="1">
          <mxGeometry x="2251.1" y="1750" width="60" height="60" as="geometry" />
        </mxCell>
        <mxCell id="cHn_flzbuspQxcIcsFyM-12" value="R12" style="shape=cylinder3;whiteSpace=wrap;html=1;boundedLbl=1;backgroundOutline=1;size=15;fontSize=13;fontStyle=0" vertex="1" parent="1">
          <mxGeometry x="2450" y="1650" width="60" height="60" as="geometry" />
        </mxCell>
        <mxCell id="cHn_flzbuspQxcIcsFyM-13" value="" style="endArrow=none;html=1;rounded=0;exitX=0.5;exitY=0;exitDx=0;exitDy=0;exitPerimeter=0;strokeColor=default;strokeWidth=2;align=center;verticalAlign=middle;fontFamily=Helvetica;fontSize=13;fontColor=default;labelBackgroundColor=default;endFill=0;fontStyle=0;entryX=0.5;entryY=1;entryDx=0;entryDy=0;entryPerimeter=0;" edge="1" parent="1" source="cHn_flzbuspQxcIcsFyM-9" target="cHn_flzbuspQxcIcsFyM-11">
          <mxGeometry width="50" height="50" relative="1" as="geometry">
            <mxPoint x="2295" y="1834.5" as="sourcePoint" />
            <mxPoint x="2295" y="1769.5" as="targetPoint" />
          </mxGeometry>
        </mxCell>
        <mxCell id="cHn_flzbuspQxcIcsFyM-14" value="" style="endArrow=none;html=1;rounded=0;exitX=1;exitY=0.5;exitDx=0;exitDy=0;exitPerimeter=0;strokeColor=default;strokeWidth=2;align=center;verticalAlign=middle;fontFamily=Helvetica;fontSize=13;fontColor=default;labelBackgroundColor=default;endFill=0;fontStyle=0;entryX=0;entryY=0.5;entryDx=0;entryDy=0;entryPerimeter=0;" edge="1" parent="1" source="cHn_flzbuspQxcIcsFyM-10" target="cHn_flzbuspQxcIcsFyM-11">
          <mxGeometry width="50" height="50" relative="1" as="geometry">
            <mxPoint x="2250.9700000000003" y="1862.5" as="sourcePoint" />
            <mxPoint x="2250.9700000000003" y="1802.5" as="targetPoint" />
          </mxGeometry>
        </mxCell>
        <mxCell id="cHn_flzbuspQxcIcsFyM-15" value="" style="endArrow=none;html=1;rounded=0;exitX=1;exitY=0.5;exitDx=0;exitDy=0;exitPerimeter=0;strokeColor=default;strokeWidth=2;align=center;verticalAlign=middle;fontFamily=Helvetica;fontSize=13;fontColor=default;labelBackgroundColor=default;endFill=0;fontStyle=0;entryX=0;entryY=0.5;entryDx=0;entryDy=0;entryPerimeter=0;" edge="1" parent="1" source="cHn_flzbuspQxcIcsFyM-10" target="cHn_flzbuspQxcIcsFyM-9">
          <mxGeometry width="50" height="50" relative="1" as="geometry">
            <mxPoint x="2218.8" y="1878.5" as="sourcePoint" />
            <mxPoint x="2259.8" y="1818.5" as="targetPoint" />
          </mxGeometry>
        </mxCell>
        <mxCell id="cHn_flzbuspQxcIcsFyM-16" value="R2" style="shape=cylinder3;whiteSpace=wrap;html=1;boundedLbl=1;backgroundOutline=1;size=15;fontSize=13;fontStyle=0" vertex="1" parent="1">
          <mxGeometry x="2383.1" y="1750" width="60" height="60" as="geometry" />
        </mxCell>
        <mxCell id="cHn_flzbuspQxcIcsFyM-17" value="" style="endArrow=none;html=1;rounded=0;exitX=0.5;exitY=0;exitDx=0;exitDy=0;exitPerimeter=0;strokeColor=default;strokeWidth=2;align=center;verticalAlign=middle;fontFamily=Helvetica;fontSize=13;fontColor=default;labelBackgroundColor=default;endFill=0;fontStyle=0;entryX=0.5;entryY=1;entryDx=0;entryDy=0;entryPerimeter=0;" edge="1" parent="1" source="cHn_flzbuspQxcIcsFyM-7" target="cHn_flzbuspQxcIcsFyM-8">
          <mxGeometry width="50" height="50" relative="1" as="geometry">
            <mxPoint x="2412.9" y="1922.5" as="sourcePoint" />
            <mxPoint x="2413.29" y="1895.0000000000002" as="targetPoint" />
          </mxGeometry>
        </mxCell>
        <mxCell id="cHn_flzbuspQxcIcsFyM-18" value="" style="endArrow=none;html=1;rounded=0;exitX=0.5;exitY=0;exitDx=0;exitDy=0;exitPerimeter=0;strokeColor=default;strokeWidth=2;align=center;verticalAlign=middle;fontFamily=Helvetica;fontSize=13;fontColor=default;labelBackgroundColor=default;endFill=0;fontStyle=0;entryX=0.5;entryY=1;entryDx=0;entryDy=0;entryPerimeter=0;" edge="1" parent="1" source="cHn_flzbuspQxcIcsFyM-8">
          <mxGeometry width="50" height="50" relative="1" as="geometry">
            <mxPoint x="2412.98" y="1838" as="sourcePoint" />
            <mxPoint x="2412.98" y="1810" as="targetPoint" />
          </mxGeometry>
        </mxCell>
        <mxCell id="cHn_flzbuspQxcIcsFyM-19" value="" style="endArrow=none;html=1;rounded=0;exitX=1;exitY=0.5;exitDx=0;exitDy=0;exitPerimeter=0;strokeColor=default;strokeWidth=2;align=center;verticalAlign=middle;fontFamily=Helvetica;fontSize=13;fontColor=default;labelBackgroundColor=default;endFill=0;fontStyle=0;entryX=0;entryY=0.5;entryDx=0;entryDy=0;entryPerimeter=0;" edge="1" parent="1" source="cHn_flzbuspQxcIcsFyM-9" target="cHn_flzbuspQxcIcsFyM-7">
          <mxGeometry width="50" height="50" relative="1" as="geometry">
            <mxPoint x="2311.1" y="1959" as="sourcePoint" />
            <mxPoint x="2311.1" y="1846" as="targetPoint" />
          </mxGeometry>
        </mxCell>
        <mxCell id="cHn_flzbuspQxcIcsFyM-20" value="" style="endArrow=none;html=1;rounded=0;exitX=1;exitY=0.5;exitDx=0;exitDy=0;exitPerimeter=0;strokeColor=default;strokeWidth=2;align=center;verticalAlign=middle;fontFamily=Helvetica;fontSize=13;fontColor=default;labelBackgroundColor=default;endFill=0;fontStyle=0;entryX=0;entryY=0.5;entryDx=0;entryDy=0;entryPerimeter=0;" edge="1" parent="1">
          <mxGeometry width="50" height="50" relative="1" as="geometry">
            <mxPoint x="2311.1" y="1780" as="sourcePoint" />
            <mxPoint x="2383.1" y="1780" as="targetPoint" />
          </mxGeometry>
        </mxCell>
        <mxCell id="cHn_flzbuspQxcIcsFyM-21" value="" style="endArrow=none;html=1;rounded=0;exitX=1;exitY=0.5;exitDx=0;exitDy=0;exitPerimeter=0;strokeColor=default;strokeWidth=2;align=center;verticalAlign=middle;fontFamily=Helvetica;fontSize=13;fontColor=default;labelBackgroundColor=default;endFill=0;fontStyle=0;entryX=0;entryY=0.5;entryDx=0;entryDy=0;entryPerimeter=0;" edge="1" parent="1">
          <mxGeometry width="50" height="50" relative="1" as="geometry">
            <mxPoint x="2443.1" y="1779.88" as="sourcePoint" />
            <mxPoint x="2515.1" y="1779.88" as="targetPoint" />
          </mxGeometry>
        </mxCell>
        <mxCell id="cHn_flzbuspQxcIcsFyM-22" value="" style="endArrow=none;html=1;rounded=0;exitX=1;exitY=0.5;exitDx=0;exitDy=0;exitPerimeter=0;strokeColor=default;strokeWidth=2;align=center;verticalAlign=middle;fontFamily=Helvetica;fontSize=13;fontColor=default;labelBackgroundColor=default;endFill=0;fontStyle=0;entryX=0;entryY=0.5;entryDx=0;entryDy=0;entryPerimeter=0;" edge="1" parent="1">
          <mxGeometry width="50" height="50" relative="1" as="geometry">
            <mxPoint x="2443.1" y="1952.38" as="sourcePoint" />
            <mxPoint x="2515.1" y="1952.38" as="targetPoint" />
          </mxGeometry>
        </mxCell>
        <mxCell id="cHn_flzbuspQxcIcsFyM-23" value="" style="endArrow=none;html=1;rounded=0;exitX=1;exitY=0.5;exitDx=0;exitDy=0;exitPerimeter=0;strokeColor=default;strokeWidth=2;align=center;verticalAlign=middle;fontFamily=Helvetica;fontSize=13;fontColor=default;labelBackgroundColor=default;endFill=0;fontStyle=0;entryX=0;entryY=0.5;entryDx=0;entryDy=0;entryPerimeter=0;" edge="1" parent="1" target="cHn_flzbuspQxcIcsFyM-4">
          <mxGeometry width="50" height="50" relative="1" as="geometry">
            <mxPoint x="2575" y="1785" as="sourcePoint" />
            <mxPoint x="2616" y="1700" as="targetPoint" />
          </mxGeometry>
        </mxCell>
        <mxCell id="cHn_flzbuspQxcIcsFyM-24" value="" style="endArrow=none;html=1;rounded=0;exitX=0.5;exitY=0;exitDx=0;exitDy=0;exitPerimeter=0;strokeColor=default;strokeWidth=2;align=center;verticalAlign=middle;fontFamily=Helvetica;fontSize=13;fontColor=default;labelBackgroundColor=default;endFill=0;fontStyle=0;entryX=0.5;entryY=1;entryDx=0;entryDy=0;entryPerimeter=0;" edge="1" parent="1">
          <mxGeometry width="50" height="50" relative="1" as="geometry">
            <mxPoint x="2544.88" y="1923" as="sourcePoint" />
            <mxPoint x="2544.88" y="1810" as="targetPoint" />
          </mxGeometry>
        </mxCell>
        <mxCell id="cHn_flzbuspQxcIcsFyM-25" value="" style="endArrow=none;html=1;rounded=0;exitX=1;exitY=0.5;exitDx=0;exitDy=0;exitPerimeter=0;strokeColor=default;strokeWidth=2;align=center;verticalAlign=middle;fontFamily=Helvetica;fontSize=13;fontColor=default;labelBackgroundColor=default;endFill=0;fontStyle=0;entryX=0;entryY=0.5;entryDx=0;entryDy=0;entryPerimeter=0;" edge="1" parent="1" source="cHn_flzbuspQxcIcsFyM-6" target="cHn_flzbuspQxcIcsFyM-4">
          <mxGeometry width="50" height="50" relative="1" as="geometry">
            <mxPoint x="2575" y="1948.5" as="sourcePoint" />
            <mxPoint x="2620" y="2028.5" as="targetPoint" />
          </mxGeometry>
        </mxCell>
        <mxCell id="cHn_flzbuspQxcIcsFyM-26" value="" style="endArrow=none;html=1;rounded=0;exitX=0.5;exitY=0;exitDx=0;exitDy=0;exitPerimeter=0;strokeColor=default;strokeWidth=2;align=center;verticalAlign=middle;fontFamily=Helvetica;fontSize=13;fontColor=default;labelBackgroundColor=default;endFill=0;fontStyle=0;entryX=0.5;entryY=1;entryDx=0;entryDy=0;entryPerimeter=0;" edge="1" parent="1" source="cHn_flzbuspQxcIcsFyM-16" target="cHn_flzbuspQxcIcsFyM-12">
          <mxGeometry width="50" height="50" relative="1" as="geometry">
            <mxPoint x="2453.1" y="1789.88" as="sourcePoint" />
            <mxPoint x="2525.1" y="1789.88" as="targetPoint" />
          </mxGeometry>
        </mxCell>
        <mxCell id="cHn_flzbuspQxcIcsFyM-27" value="" style="endArrow=none;html=1;rounded=0;exitX=0.5;exitY=0;exitDx=0;exitDy=0;exitPerimeter=0;strokeColor=default;strokeWidth=2;align=center;verticalAlign=middle;fontFamily=Helvetica;fontSize=13;fontColor=default;labelBackgroundColor=default;endFill=0;fontStyle=0;" edge="1" parent="1" source="cHn_flzbuspQxcIcsFyM-5">
          <mxGeometry width="50" height="50" relative="1" as="geometry">
            <mxPoint x="2423" y="1760" as="sourcePoint" />
            <mxPoint x="2480" y="1710" as="targetPoint" />
          </mxGeometry>
        </mxCell>
        <mxCell id="cHn_flzbuspQxcIcsFyM-28" value="&lt;span style=&quot;background-color: rgb(255, 255, 255);&quot;&gt;ens4&lt;/span&gt;" style="text;html=1;align=center;verticalAlign=middle;whiteSpace=wrap;rounded=0;" vertex="1" parent="1">
          <mxGeometry x="2191.1" y="1826" width="60" height="30" as="geometry" />
        </mxCell>
        <mxCell id="cHn_flzbuspQxcIcsFyM-29" value="&lt;span style=&quot;background-color: rgb(255, 255, 255);&quot;&gt;ens5&lt;/span&gt;" style="text;html=1;align=center;verticalAlign=middle;whiteSpace=wrap;rounded=0;" vertex="1" parent="1">
          <mxGeometry x="2190" y="1876" width="60" height="30" as="geometry" />
        </mxCell>
        <mxCell id="cHn_flzbuspQxcIcsFyM-30" value="&lt;span style=&quot;background-color: rgb(255, 255, 255);&quot;&gt;ens5&lt;/span&gt;" style="text;html=1;align=center;verticalAlign=middle;whiteSpace=wrap;rounded=0;" vertex="1" parent="1">
          <mxGeometry x="2210" y="1922.5" width="60" height="30" as="geometry" />
        </mxCell>
        <mxCell id="cHn_flzbuspQxcIcsFyM-31" value="&lt;span style=&quot;background-color: rgb(255, 255, 255);&quot;&gt;ens6&lt;/span&gt;" style="text;html=1;align=center;verticalAlign=middle;whiteSpace=wrap;rounded=0;" vertex="1" parent="1">
          <mxGeometry x="2210" y="1770" width="60" height="26" as="geometry" />
        </mxCell>
        <mxCell id="cHn_flzbuspQxcIcsFyM-32" value="&lt;span style=&quot;background-color: rgb(255, 255, 255);&quot;&gt;ens4&lt;/span&gt;" style="text;html=1;align=center;verticalAlign=middle;whiteSpace=wrap;rounded=0;" vertex="1" parent="1">
          <mxGeometry x="2270" y="1804.5" width="60" height="30" as="geometry" />
        </mxCell>
        <mxCell id="cHn_flzbuspQxcIcsFyM-33" value="&lt;span style=&quot;background-color: rgb(255, 255, 255);&quot;&gt;ens4&lt;/span&gt;" style="text;html=1;align=center;verticalAlign=middle;whiteSpace=wrap;rounded=0;" vertex="1" parent="1">
          <mxGeometry x="2270" y="1899" width="60" height="30" as="geometry" />
        </mxCell>
        <mxCell id="cHn_flzbuspQxcIcsFyM-34" value="&lt;span style=&quot;background-color: rgb(255, 255, 255);&quot;&gt;ens6&lt;/span&gt;" style="text;html=1;align=center;verticalAlign=middle;whiteSpace=wrap;rounded=0;" vertex="1" parent="1">
          <mxGeometry x="2290" y="1946" width="60" height="30" as="geometry" />
        </mxCell>
        <mxCell id="cHn_flzbuspQxcIcsFyM-35" value="&lt;span style=&quot;background-color: rgb(255, 255, 255);&quot;&gt;ens6&lt;/span&gt;" style="text;html=1;align=center;verticalAlign=middle;whiteSpace=wrap;rounded=0;" vertex="1" parent="1">
          <mxGeometry x="2350" y="1946" width="60" height="30" as="geometry" />
        </mxCell>
        <mxCell id="cHn_flzbuspQxcIcsFyM-36" value="&lt;span style=&quot;background-color: light-dark(#ffffff, var(--ge-dark-color, #121212));&quot;&gt;ens4&lt;/span&gt;" style="text;html=1;align=center;verticalAlign=middle;whiteSpace=wrap;rounded=0;" vertex="1" parent="1">
          <mxGeometry x="2420" y="1946" width="60" height="30" as="geometry" />
        </mxCell>
        <mxCell id="cHn_flzbuspQxcIcsFyM-37" value="&lt;span style=&quot;background-color: light-dark(#ffffff, var(--ge-dark-color, #121212));&quot;&gt;ens4&lt;/span&gt;" style="text;html=1;align=center;verticalAlign=middle;whiteSpace=wrap;rounded=0;" vertex="1" parent="1">
          <mxGeometry x="2480" y="1946" width="60" height="30" as="geometry" />
        </mxCell>
        <mxCell id="cHn_flzbuspQxcIcsFyM-38" value="&lt;span style=&quot;background-color: light-dark(#ffffff, var(--ge-dark-color, #121212));&quot;&gt;ens5&lt;/span&gt;" style="text;html=1;align=center;verticalAlign=middle;whiteSpace=wrap;rounded=0;" vertex="1" parent="1">
          <mxGeometry x="2400" y="1906" width="60" height="30" as="geometry" />
        </mxCell>
        <mxCell id="cHn_flzbuspQxcIcsFyM-39" value="&lt;span style=&quot;background-color: rgb(255, 255, 255);&quot;&gt;ens5&lt;/span&gt;" style="text;html=1;align=center;verticalAlign=middle;whiteSpace=wrap;rounded=0;" vertex="1" parent="1">
          <mxGeometry x="2400" y="1816" width="60" height="30" as="geometry" />
        </mxCell>
        <mxCell id="cHn_flzbuspQxcIcsFyM-40" value="&lt;span style=&quot;background-color: rgb(255, 255, 255);&quot;&gt;ens4&lt;/span&gt;" style="text;html=1;align=center;verticalAlign=middle;whiteSpace=wrap;rounded=0;" vertex="1" parent="1">
          <mxGeometry x="2400" y="1876" width="60" height="30" as="geometry" />
        </mxCell>
        <mxCell id="cHn_flzbuspQxcIcsFyM-41" value="&lt;span style=&quot;background-color: rgb(255, 255, 255);&quot;&gt;ens8&lt;/span&gt;" style="text;html=1;align=center;verticalAlign=middle;whiteSpace=wrap;rounded=0;" vertex="1" parent="1">
          <mxGeometry x="2400" y="1796" width="60" height="30" as="geometry" />
        </mxCell>
        <mxCell id="cHn_flzbuspQxcIcsFyM-42" value="&lt;span style=&quot;background-color: light-dark(#ffffff, var(--ge-dark-color, #121212));&quot;&gt;ens6&lt;/span&gt;" style="text;html=1;align=center;verticalAlign=middle;whiteSpace=wrap;rounded=0;" vertex="1" parent="1">
          <mxGeometry x="2350" y="1774.5" width="60" height="30" as="geometry" />
        </mxCell>
        <mxCell id="cHn_flzbuspQxcIcsFyM-43" value="&lt;span style=&quot;background-color: rgb(255, 255, 255);&quot;&gt;ens5&lt;/span&gt;" style="text;html=1;align=center;verticalAlign=middle;whiteSpace=wrap;rounded=0;" vertex="1" parent="1">
          <mxGeometry x="2290" y="1776" width="60" height="28.5" as="geometry" />
        </mxCell>
        <mxCell id="cHn_flzbuspQxcIcsFyM-44" value="&lt;span style=&quot;background-color: rgb(255, 255, 255);&quot;&gt;ens7&lt;/span&gt;" style="text;html=1;align=center;verticalAlign=middle;whiteSpace=wrap;rounded=0;" vertex="1" parent="1">
          <mxGeometry x="2420" y="1774.5" width="60" height="30" as="geometry" />
        </mxCell>
        <mxCell id="cHn_flzbuspQxcIcsFyM-45" value="&lt;span style=&quot;background-color: rgb(255, 255, 255);&quot;&gt;ens6&lt;/span&gt;" style="text;html=1;align=center;verticalAlign=middle;whiteSpace=wrap;rounded=0;" vertex="1" parent="1">
          <mxGeometry x="2480" y="1774.5" width="60" height="30" as="geometry" />
        </mxCell>
        <mxCell id="cHn_flzbuspQxcIcsFyM-46" value="&lt;span style=&quot;background-color: rgb(255, 255, 255);&quot;&gt;ens6&lt;/span&gt;" style="text;html=1;align=center;verticalAlign=middle;whiteSpace=wrap;rounded=0;" vertex="1" parent="1">
          <mxGeometry x="2530" y="1906" width="60" height="30" as="geometry" />
        </mxCell>
        <mxCell id="cHn_flzbuspQxcIcsFyM-47" value="&lt;span style=&quot;background-color: light-dark(#ffffff, var(--ge-dark-color, #121212));&quot;&gt;ens5&lt;/span&gt;" style="text;html=1;align=center;verticalAlign=middle;whiteSpace=wrap;rounded=0;" vertex="1" parent="1">
          <mxGeometry x="2530" y="1796" width="60" height="30" as="geometry" />
        </mxCell>
        <mxCell id="cHn_flzbuspQxcIcsFyM-48" value="&lt;span style=&quot;background-color: rgb(255, 255, 255);&quot;&gt;ens5&lt;/span&gt;" style="text;html=1;align=center;verticalAlign=middle;whiteSpace=wrap;rounded=0;" vertex="1" parent="1">
          <mxGeometry x="2550" y="1946" width="60" height="30" as="geometry" />
        </mxCell>
        <mxCell id="cHn_flzbuspQxcIcsFyM-49" value="&lt;span style=&quot;background-color: rgb(255, 255, 255);&quot;&gt;ens5&lt;/span&gt;" style="text;html=1;align=center;verticalAlign=middle;whiteSpace=wrap;rounded=0;" vertex="1" parent="1">
          <mxGeometry x="2590" y="1869" width="60" height="30" as="geometry" />
        </mxCell>
        <mxCell id="cHn_flzbuspQxcIcsFyM-50" value="&lt;span style=&quot;background-color: rgb(255, 255, 255);&quot;&gt;ens4&lt;/span&gt;" style="text;html=1;align=center;verticalAlign=middle;whiteSpace=wrap;rounded=0;" vertex="1" parent="1">
          <mxGeometry x="2580" y="1826" width="60" height="30" as="geometry" />
        </mxCell>
        <mxCell id="cHn_flzbuspQxcIcsFyM-51" value="&lt;span style=&quot;background-color: rgb(255, 255, 255);&quot;&gt;ens4&lt;/span&gt;" style="text;html=1;align=center;verticalAlign=middle;whiteSpace=wrap;rounded=0;" vertex="1" parent="1">
          <mxGeometry x="2550" y="1765" width="60" height="30" as="geometry" />
        </mxCell>
        <mxCell id="cHn_flzbuspQxcIcsFyM-52" value="&lt;span style=&quot;background-color: rgb(255, 255, 255);&quot;&gt;ens7&lt;/span&gt;" style="text;html=1;align=center;verticalAlign=middle;whiteSpace=wrap;rounded=0;" vertex="1" parent="1">
          <mxGeometry x="2520" y="1726" width="60" height="30" as="geometry" />
        </mxCell>
        <mxCell id="cHn_flzbuspQxcIcsFyM-53" value="&lt;span style=&quot;background-color: rgb(255, 255, 255);&quot;&gt;ens5&lt;/span&gt;" style="text;html=1;align=center;verticalAlign=middle;whiteSpace=wrap;rounded=0;" vertex="1" parent="1">
          <mxGeometry x="2400" y="1726" width="60" height="30" as="geometry" />
        </mxCell>
        <mxCell id="cHn_flzbuspQxcIcsFyM-54" value="&lt;span style=&quot;background-color: rgb(255, 255, 255);&quot;&gt;ens4&lt;/span&gt;" style="text;html=1;align=center;verticalAlign=middle;whiteSpace=wrap;rounded=0;" vertex="1" parent="1">
          <mxGeometry x="2430" y="1695" width="60" height="30" as="geometry" />
        </mxCell>
        <mxCell id="cHn_flzbuspQxcIcsFyM-55" value="&lt;span style=&quot;background-color: rgb(255, 255, 255);&quot;&gt;ens5&lt;/span&gt;" style="text;html=1;align=center;verticalAlign=middle;whiteSpace=wrap;rounded=0;" vertex="1" parent="1">
          <mxGeometry x="2470" y="1696" width="60" height="30" as="geometry" />
        </mxCell>
        <mxCell id="cHn_flzbuspQxcIcsFyM-56" value="192.168.1.0/24" style="text;html=1;align=center;verticalAlign=middle;resizable=0;points=[];autosize=1;strokeColor=none;fillColor=none;" vertex="1" parent="1">
          <mxGeometry x="2150" y="1790" width="100" height="30" as="geometry" />
        </mxCell>
        <mxCell id="cHn_flzbuspQxcIcsFyM-57" value="192.168.2.0/24" style="text;html=1;align=center;verticalAlign=middle;resizable=0;points=[];autosize=1;strokeColor=none;fillColor=none;" vertex="1" parent="1">
          <mxGeometry x="2180" y="1894" width="100" height="30" as="geometry" />
        </mxCell>
        <mxCell id="cHn_flzbuspQxcIcsFyM-58" value="192.168.5.0/24" style="text;html=1;align=center;verticalAlign=middle;resizable=0;points=[];autosize=1;strokeColor=none;fillColor=none;" vertex="1" parent="1">
          <mxGeometry x="2300" y="1966" width="100" height="30" as="geometry" />
        </mxCell>
        <mxCell id="cHn_flzbuspQxcIcsFyM-59" value="192.168.3.0/24" style="text;html=1;align=center;verticalAlign=middle;resizable=0;points=[];autosize=1;strokeColor=none;fillColor=none;" vertex="1" parent="1">
          <mxGeometry x="2269.5" y="1850" width="100" height="30" as="geometry" />
        </mxCell>
        <mxCell id="cHn_flzbuspQxcIcsFyM-60" value="192.168.4.0/24" style="text;html=1;align=center;verticalAlign=middle;resizable=0;points=[];autosize=1;strokeColor=none;fillColor=none;" vertex="1" parent="1">
          <mxGeometry x="2290" y="1744.5" width="100" height="30" as="geometry" />
        </mxCell>
        <mxCell id="cHn_flzbuspQxcIcsFyM-61" value="192.168.8.0/24" style="text;html=1;align=center;verticalAlign=middle;resizable=0;points=[];autosize=1;strokeColor=none;fillColor=none;" vertex="1" parent="1">
          <mxGeometry x="2430" y="1744.5" width="100" height="30" as="geometry" />
        </mxCell>
        <mxCell id="cHn_flzbuspQxcIcsFyM-62" value="192.168.6.0/24" style="text;html=1;align=center;verticalAlign=middle;resizable=0;points=[];autosize=1;strokeColor=none;fillColor=none;" vertex="1" parent="1">
          <mxGeometry x="2320" y="1810" width="100" height="30" as="geometry" />
        </mxCell>
        <mxCell id="cHn_flzbuspQxcIcsFyM-63" value="192.168.7.0/24" style="text;html=1;align=center;verticalAlign=middle;resizable=0;points=[];autosize=1;strokeColor=none;fillColor=none;" vertex="1" parent="1">
          <mxGeometry x="2410" y="1894" width="100" height="30" as="geometry" />
        </mxCell>
        <mxCell id="cHn_flzbuspQxcIcsFyM-64" value="192.168.9.0/24" style="text;html=1;align=center;verticalAlign=middle;resizable=0;points=[];autosize=1;strokeColor=none;fillColor=none;" vertex="1" parent="1">
          <mxGeometry x="2430" y="1966" width="100" height="30" as="geometry" />
        </mxCell>
        <mxCell id="cHn_flzbuspQxcIcsFyM-65" value="192.168.10.0/24" style="text;html=1;align=center;verticalAlign=middle;resizable=0;points=[];autosize=1;strokeColor=none;fillColor=none;" vertex="1" parent="1">
          <mxGeometry x="2515" y="1850" width="110" height="30" as="geometry" />
        </mxCell>
        <mxCell id="cHn_flzbuspQxcIcsFyM-66" value="192.168.11.0/24" style="text;html=1;align=center;verticalAlign=middle;resizable=0;points=[];autosize=1;strokeColor=none;fillColor=none;" vertex="1" parent="1">
          <mxGeometry x="2575" y="1916" width="110" height="30" as="geometry" />
        </mxCell>
        <mxCell id="cHn_flzbuspQxcIcsFyM-67" value="192.168.12.0/24" style="text;html=1;align=center;verticalAlign=middle;resizable=0;points=[];autosize=1;strokeColor=none;fillColor=none;" vertex="1" parent="1">
          <mxGeometry x="2580" y="1796" width="110" height="30" as="geometry" />
        </mxCell>
        <mxCell id="cHn_flzbuspQxcIcsFyM-68" value="192.168.14.0/24" style="text;html=1;align=center;verticalAlign=middle;resizable=0;points=[];autosize=1;strokeColor=none;fillColor=none;" vertex="1" parent="1">
          <mxGeometry x="2520" y="1710" width="110" height="30" as="geometry" />
        </mxCell>
        <mxCell id="cHn_flzbuspQxcIcsFyM-69" value="192.168.13.0/24" style="text;html=1;align=center;verticalAlign=middle;resizable=0;points=[];autosize=1;strokeColor=none;fillColor=none;" vertex="1" parent="1">
          <mxGeometry x="2395" y="1710" width="110" height="30" as="geometry" />
        </mxCell>
        <mxCell id="cHn_flzbuspQxcIcsFyM-70" value="ned" style="aspect=fixed;sketch=0;html=1;dashed=0;whitespace=wrap;verticalLabelPosition=bottom;verticalAlign=top;fillColor=#2875E2;strokeColor=#ffffff;points=[[0.005,0.63,0],[0.1,0.2,0],[0.9,0.2,0],[0.5,0,0],[0.995,0.63,0],[0.72,0.99,0],[0.5,1,0],[0.28,0.99,0]];shape=mxgraph.kubernetes.icon2;kubernetesLabel=1;prIcon=pod" vertex="1" parent="1">
          <mxGeometry x="2017" y="2016" width="54.44" height="52.25" as="geometry" />
        </mxCell>
        <mxCell id="cHn_flzbuspQxcIcsFyM-71" value="proxy" style="aspect=fixed;sketch=0;html=1;dashed=0;whitespace=wrap;verticalLabelPosition=bottom;verticalAlign=top;fillColor=#2875E2;strokeColor=#ffffff;points=[[0.005,0.63,0],[0.1,0.2,0],[0.9,0.2,0],[0.5,0,0],[0.995,0.63,0],[0.72,0.99,0],[0.5,1,0],[0.28,0.99,0]];shape=mxgraph.kubernetes.icon2;prIcon=pod" vertex="1" parent="1">
          <mxGeometry x="1917" y="2016" width="50" height="48" as="geometry" />
        </mxCell>
        <mxCell id="cHn_flzbuspQxcIcsFyM-72" value="" style="endArrow=none;html=1;rounded=0;entryX=0.114;entryY=0.438;entryDx=0;entryDy=0;entryPerimeter=0;" edge="1" parent="1" source="cHn_flzbuspQxcIcsFyM-71" target="cHn_flzbuspQxcIcsFyM-70">
          <mxGeometry width="50" height="50" relative="1" as="geometry">
            <mxPoint x="2237" y="1956" as="sourcePoint" />
            <mxPoint x="2287" y="1906" as="targetPoint" />
          </mxGeometry>
        </mxCell>
        <mxCell id="cHn_flzbuspQxcIcsFyM-73" value="10.0.1.15" style="edgeLabel;html=1;align=center;verticalAlign=middle;resizable=0;points=[];" vertex="1" connectable="0" parent="cHn_flzbuspQxcIcsFyM-72">
          <mxGeometry x="-0.4958" relative="1" as="geometry">
            <mxPoint as="offset" />
          </mxGeometry>
        </mxCell>
        <mxCell id="cHn_flzbuspQxcIcsFyM-74" value="Client1" style="points=[[0.35,0,0],[0.98,0.51,0],[1,0.71,0],[0.67,1,0],[0,0.795,0],[0,0.65,0]];verticalLabelPosition=bottom;sketch=0;html=1;verticalAlign=top;aspect=fixed;align=center;pointerEvents=1;shape=mxgraph.cisco19.user;fillColor=#005073;strokeColor=none;" vertex="1" parent="1">
          <mxGeometry x="1860" y="2236" width="78.5" height="78.5" as="geometry" />
        </mxCell>
        <mxCell id="cHn_flzbuspQxcIcsFyM-75" value="" style="endArrow=none;html=1;rounded=0;entryX=0.5;entryY=1;entryDx=0;entryDy=0;entryPerimeter=0;" edge="1" parent="1" target="cHn_flzbuspQxcIcsFyM-71">
          <mxGeometry x="0.0005" width="50" height="50" relative="1" as="geometry">
            <mxPoint x="1940" y="2210" as="sourcePoint" />
            <mxPoint x="2067" y="2036" as="targetPoint" />
            <mxPoint as="offset" />
          </mxGeometry>
        </mxCell>
        <mxCell id="cHn_flzbuspQxcIcsFyM-125" value=".1" style="edgeLabel;html=1;align=center;verticalAlign=middle;resizable=0;points=[];" vertex="1" connectable="0" parent="cHn_flzbuspQxcIcsFyM-75">
          <mxGeometry x="0.5959" y="1" relative="1" as="geometry">
            <mxPoint as="offset" />
          </mxGeometry>
        </mxCell>
        <mxCell id="cHn_flzbuspQxcIcsFyM-78" value="" style="endArrow=none;html=1;rounded=0;entryX=0;entryY=0;entryDx=0;entryDy=22.5;entryPerimeter=0;exitX=1;exitY=0.25;exitDx=0;exitDy=0;" edge="1" parent="1" source="cHn_flzbuspQxcIcsFyM-2" target="cHn_flzbuspQxcIcsFyM-10">
          <mxGeometry width="50" height="50" relative="1" as="geometry">
            <mxPoint x="2042" y="1844.1599999999999" as="sourcePoint" />
            <mxPoint x="2102" y="1784.1599999999999" as="targetPoint" />
          </mxGeometry>
        </mxCell>
        <mxCell id="cHn_flzbuspQxcIcsFyM-79" value="veth1" style="edgeLabel;html=1;align=center;verticalAlign=middle;resizable=0;points=[];" vertex="1" connectable="0" parent="cHn_flzbuspQxcIcsFyM-78">
          <mxGeometry x="0.6423" relative="1" as="geometry">
            <mxPoint as="offset" />
          </mxGeometry>
        </mxCell>
        <mxCell id="cHn_flzbuspQxcIcsFyM-80" value="" style="endArrow=none;html=1;rounded=0;exitX=0.5;exitY=0;exitDx=0;exitDy=0;exitPerimeter=0;entryX=0.5;entryY=1;entryDx=0;entryDy=0;fillColor=#FFB366;strokeColor=#FF0000;strokeWidth=2;" edge="1" parent="1" source="cHn_flzbuspQxcIcsFyM-70" target="cHn_flzbuspQxcIcsFyM-2">
          <mxGeometry width="50" height="50" relative="1" as="geometry">
            <mxPoint x="2244" y="2041.75" as="sourcePoint" />
            <mxPoint x="2042" y="1908" as="targetPoint" />
          </mxGeometry>
        </mxCell>
        <mxCell id="cHn_flzbuspQxcIcsFyM-81" value="&lt;div&gt;&lt;span style=&quot;font-size: 12px; text-wrap-mode: wrap; background-color: rgb(236, 236, 236);&quot;&gt;&lt;br&gt;&lt;/span&gt;&lt;/div&gt;" style="edgeLabel;html=1;align=center;verticalAlign=middle;resizable=0;points=[];" vertex="1" connectable="0" parent="cHn_flzbuspQxcIcsFyM-80">
          <mxGeometry x="0.8272" y="1" relative="1" as="geometry">
            <mxPoint x="173" y="-3" as="offset" />
          </mxGeometry>
        </mxCell>
        <mxCell id="cHn_flzbuspQxcIcsFyM-82" value="&lt;div&gt;&lt;br&gt;&lt;/div&gt;" style="edgeLabel;html=1;align=center;verticalAlign=middle;resizable=0;points=[];" vertex="1" connectable="0" parent="cHn_flzbuspQxcIcsFyM-80">
          <mxGeometry x="0.8402" y="1" relative="1" as="geometry">
            <mxPoint x="-37" y="-90" as="offset" />
          </mxGeometry>
        </mxCell>
        <mxCell id="cHn_flzbuspQxcIcsFyM-83" value="vxlan-1" style="edgeLabel;html=1;align=center;verticalAlign=middle;resizable=0;points=[];" vertex="1" connectable="0" parent="cHn_flzbuspQxcIcsFyM-80">
          <mxGeometry x="-0.7469" relative="1" as="geometry">
            <mxPoint as="offset" />
          </mxGeometry>
        </mxCell>
        <mxCell id="cHn_flzbuspQxcIcsFyM-84" value="&lt;span style=&quot;font-size: 11px; background-color: rgb(255, 255, 255);&quot;&gt;10.0.1.20&lt;/span&gt;" style="text;html=1;align=center;verticalAlign=middle;resizable=0;points=[];autosize=1;strokeColor=none;fillColor=none;" vertex="1" parent="1">
          <mxGeometry x="2110" y="1820" width="70" height="30" as="geometry" />
        </mxCell>
        <mxCell id="cHn_flzbuspQxcIcsFyM-85" value="&lt;span style=&quot;font-size: 11px; background-color: rgb(255, 255, 255);&quot;&gt;vxlan-1&lt;/span&gt;" style="text;html=1;align=center;verticalAlign=middle;resizable=0;points=[];autosize=1;strokeColor=none;fillColor=none;" vertex="1" parent="1">
          <mxGeometry x="2011.44" y="1886" width="60" height="30" as="geometry" />
        </mxCell>
        <mxCell id="cHn_flzbuspQxcIcsFyM-86" value="&lt;span style=&quot;font-size: 11px; background-color: rgb(255, 255, 255);&quot;&gt;veth0&lt;/span&gt;" style="text;html=1;align=center;verticalAlign=middle;resizable=0;points=[];autosize=1;strokeColor=none;fillColor=none;" vertex="1" parent="1">
          <mxGeometry x="2060" y="1841" width="50" height="30" as="geometry" />
        </mxCell>
        <mxCell id="cHn_flzbuspQxcIcsFyM-87" value="" style="endArrow=none;html=1;rounded=0;exitX=0.5;exitY=0;exitDx=0;exitDy=0;exitPerimeter=0;strokeColor=default;strokeWidth=2;align=center;verticalAlign=middle;fontFamily=Helvetica;fontSize=13;fontColor=default;labelBackgroundColor=default;endFill=0;fontStyle=0;entryX=0.5;entryY=1;entryDx=0;entryDy=0;entryPerimeter=0;" edge="1" parent="1" target="cHn_flzbuspQxcIcsFyM-93">
          <mxGeometry width="50" height="50" relative="1" as="geometry">
            <mxPoint x="2404.77" y="1750" as="sourcePoint" />
            <mxPoint x="2300" y="1660" as="targetPoint" />
          </mxGeometry>
        </mxCell>
        <mxCell id="cHn_flzbuspQxcIcsFyM-88" value="ens4" style="edgeLabel;html=1;align=center;verticalAlign=middle;resizable=0;points=[];" vertex="1" connectable="0" parent="cHn_flzbuspQxcIcsFyM-87">
          <mxGeometry x="-0.6835" relative="1" as="geometry">
            <mxPoint as="offset" />
          </mxGeometry>
        </mxCell>
        <mxCell id="cHn_flzbuspQxcIcsFyM-89" value=".20" style="edgeLabel;html=1;align=center;verticalAlign=middle;resizable=0;points=[];" vertex="1" connectable="0" parent="cHn_flzbuspQxcIcsFyM-87">
          <mxGeometry x="-0.1594" y="-1" relative="1" as="geometry">
            <mxPoint as="offset" />
          </mxGeometry>
        </mxCell>
        <mxCell id="cHn_flzbuspQxcIcsFyM-90" value=".3" style="edgeLabel;html=1;align=center;verticalAlign=middle;resizable=0;points=[];" vertex="1" connectable="0" parent="cHn_flzbuspQxcIcsFyM-87">
          <mxGeometry x="0.8307" y="-1" relative="1" as="geometry">
            <mxPoint as="offset" />
          </mxGeometry>
        </mxCell>
        <mxCell id="cHn_flzbuspQxcIcsFyM-91" value="ens4" style="edgeLabel;html=1;align=center;verticalAlign=middle;resizable=0;points=[];" vertex="1" connectable="0" parent="cHn_flzbuspQxcIcsFyM-87">
          <mxGeometry x="0.5874" relative="1" as="geometry">
            <mxPoint as="offset" />
          </mxGeometry>
        </mxCell>
        <mxCell id="cHn_flzbuspQxcIcsFyM-92" value="192.168.15.0/24" style="edgeLabel;html=1;align=center;verticalAlign=middle;resizable=0;points=[];" vertex="1" connectable="0" parent="cHn_flzbuspQxcIcsFyM-87">
          <mxGeometry x="0.1483" y="1" relative="1" as="geometry">
            <mxPoint as="offset" />
          </mxGeometry>
        </mxCell>
        <mxCell id="cHn_flzbuspQxcIcsFyM-93" value="gateway" style="shape=cylinder3;whiteSpace=wrap;html=1;boundedLbl=1;backgroundOutline=1;size=15;fontSize=13;fontStyle=0" vertex="1" parent="1">
          <mxGeometry x="2379.5" y="1550" width="60" height="60" as="geometry" />
        </mxCell>
        <mxCell id="cHn_flzbuspQxcIcsFyM-94" value="&lt;span style=&quot;font-size: 11px;&quot;&gt;192.168.27.0/24&lt;/span&gt;" style="endArrow=none;html=1;rounded=0;strokeColor=default;strokeWidth=2;align=center;verticalAlign=middle;fontFamily=Helvetica;fontSize=13;fontColor=default;labelBackgroundColor=default;endFill=0;fontStyle=0;entryX=0.473;entryY=0.918;entryDx=0;entryDy=0;entryPerimeter=0;" edge="1" parent="1" target="cHn_flzbuspQxcIcsFyM-96">
          <mxGeometry width="50" height="50" relative="1" as="geometry">
            <mxPoint x="2409.5" y="1550" as="sourcePoint" />
            <mxPoint x="2109.5" y="1580" as="targetPoint" />
          </mxGeometry>
        </mxCell>
        <mxCell id="cHn_flzbuspQxcIcsFyM-95" value="ens3" style="edgeLabel;html=1;align=center;verticalAlign=middle;resizable=0;points=[];" vertex="1" connectable="0" parent="cHn_flzbuspQxcIcsFyM-94">
          <mxGeometry x="-0.6445" relative="1" as="geometry">
            <mxPoint y="-1" as="offset" />
          </mxGeometry>
        </mxCell>
        <mxCell id="cHn_flzbuspQxcIcsFyM-96" value="Internet" style="html=1;verticalLabelPosition=bottom;align=center;labelBackgroundColor=#ffffff;verticalAlign=top;strokeWidth=2;strokeColor=#0080F0;shadow=0;dashed=0;shape=mxgraph.ios7.icons.cloud;" vertex="1" parent="1">
          <mxGeometry x="2369.5" y="1420" width="80" height="40" as="geometry" />
        </mxCell>
        <mxCell id="cHn_flzbuspQxcIcsFyM-97" value="&lt;b&gt;&lt;font style=&quot;font-size: 14px;&quot;&gt;R11&lt;/font&gt;&lt;/b&gt;&lt;div&gt;&lt;b style=&quot;&quot;&gt;&lt;font size=&quot;3&quot;&gt;connections&lt;/font&gt;&lt;/b&gt;&lt;/div&gt;" style="text;html=1;align=center;verticalAlign=middle;whiteSpace=wrap;rounded=0;" vertex="1" parent="1">
          <mxGeometry x="2100" y="1906" width="60" height="30" as="geometry" />
        </mxCell>
        <mxCell id="cHn_flzbuspQxcIcsFyM-100" value="Client2" style="points=[[0.35,0,0],[0.98,0.51,0],[1,0.71,0],[0.67,1,0],[0,0.795,0],[0,0.65,0]];verticalLabelPosition=bottom;sketch=0;html=1;verticalAlign=top;aspect=fixed;align=center;pointerEvents=1;shape=mxgraph.cisco19.user;fillColor=#005073;strokeColor=none;" vertex="1" parent="1">
          <mxGeometry x="1947" y="2236" width="78.5" height="78.5" as="geometry" />
        </mxCell>
        <mxCell id="cHn_flzbuspQxcIcsFyM-101" value="Client7" style="points=[[0.35,0,0],[0.98,0.51,0],[1,0.71,0],[0.67,1,0],[0,0.795,0],[0,0.65,0]];verticalLabelPosition=bottom;sketch=0;html=1;verticalAlign=top;aspect=fixed;align=center;pointerEvents=1;shape=mxgraph.cisco19.user;fillColor=#005073;strokeColor=none;" vertex="1" parent="1">
          <mxGeometry x="2081.5" y="2236" width="78.5" height="78.5" as="geometry" />
        </mxCell>
        <mxCell id="cHn_flzbuspQxcIcsFyM-102" value="" style="endArrow=none;html=1;rounded=0;" edge="1" parent="1">
          <mxGeometry width="50" height="50" relative="1" as="geometry">
            <mxPoint x="2120" y="2210" as="sourcePoint" />
            <mxPoint x="1870" y="2210" as="targetPoint" />
          </mxGeometry>
        </mxCell>
        <mxCell id="cHn_flzbuspQxcIcsFyM-116" value="10.0.2.0/24" style="edgeLabel;html=1;align=center;verticalAlign=middle;resizable=0;points=[];" vertex="1" connectable="0" parent="cHn_flzbuspQxcIcsFyM-102">
          <mxGeometry x="-0.2087" y="1" relative="1" as="geometry">
            <mxPoint as="offset" />
          </mxGeometry>
        </mxCell>
        <mxCell id="cHn_flzbuspQxcIcsFyM-107" value="" style="endArrow=none;dashed=1;html=1;dashPattern=1 3;strokeWidth=2;rounded=0;" edge="1" parent="1">
          <mxGeometry width="50" height="50" relative="1" as="geometry">
            <mxPoint x="2060" y="2260" as="sourcePoint" />
            <mxPoint x="2080" y="2260" as="targetPoint" />
          </mxGeometry>
        </mxCell>
        <mxCell id="cHn_flzbuspQxcIcsFyM-109" value="" style="endArrow=none;html=1;rounded=0;exitX=0.35;exitY=0;exitDx=0;exitDy=0;exitPerimeter=0;" edge="1" parent="1" source="cHn_flzbuspQxcIcsFyM-74">
          <mxGeometry width="50" height="50" relative="1" as="geometry">
            <mxPoint x="1960" y="2230" as="sourcePoint" />
            <mxPoint x="1887" y="2210" as="targetPoint" />
          </mxGeometry>
        </mxCell>
        <mxCell id="cHn_flzbuspQxcIcsFyM-117" value=".2" style="edgeLabel;html=1;align=center;verticalAlign=middle;resizable=0;points=[];" vertex="1" connectable="0" parent="cHn_flzbuspQxcIcsFyM-109">
          <mxGeometry x="0.3513" relative="1" as="geometry">
            <mxPoint as="offset" />
          </mxGeometry>
        </mxCell>
        <mxCell id="cHn_flzbuspQxcIcsFyM-111" value="" style="endArrow=none;html=1;rounded=0;exitX=0.727;exitY=-0.003;exitDx=0;exitDy=0;exitPerimeter=0;" edge="1" parent="1">
          <mxGeometry width="50" height="50" relative="1" as="geometry">
            <mxPoint x="2099.69" y="2236" as="sourcePoint" />
            <mxPoint x="2099.69" y="2210" as="targetPoint" />
          </mxGeometry>
        </mxCell>
        <mxCell id="cHn_flzbuspQxcIcsFyM-119" value=".8" style="edgeLabel;html=1;align=center;verticalAlign=middle;resizable=0;points=[];" vertex="1" connectable="0" parent="cHn_flzbuspQxcIcsFyM-111">
          <mxGeometry x="0.5347" relative="1" as="geometry">
            <mxPoint as="offset" />
          </mxGeometry>
        </mxCell>
        <mxCell id="cHn_flzbuspQxcIcsFyM-115" value="" style="endArrow=none;html=1;rounded=0;exitX=0.296;exitY=-0.007;exitDx=0;exitDy=0;exitPerimeter=0;" edge="1" parent="1" source="cHn_flzbuspQxcIcsFyM-100">
          <mxGeometry width="50" height="50" relative="1" as="geometry">
            <mxPoint x="1980" y="2236" as="sourcePoint" />
            <mxPoint x="1970" y="2210" as="targetPoint" />
          </mxGeometry>
        </mxCell>
        <mxCell id="cHn_flzbuspQxcIcsFyM-118" value=".3" style="edgeLabel;html=1;align=center;verticalAlign=middle;resizable=0;points=[];" vertex="1" connectable="0" parent="cHn_flzbuspQxcIcsFyM-115">
          <mxGeometry x="0.4605" relative="1" as="geometry">
            <mxPoint as="offset" />
          </mxGeometry>
        </mxCell>
        <mxCell id="cHn_flzbuspQxcIcsFyM-121" value="&lt;b style=&quot;&quot;&gt;&lt;font style=&quot;color: light-dark(rgb(42, 89, 167), rgb(42, 89, 167)); font-size: 24px;&quot;&gt;Edge&lt;/font&gt;&lt;/b&gt;" style="text;html=1;align=center;verticalAlign=middle;whiteSpace=wrap;rounded=0;" vertex="1" parent="1">
          <mxGeometry x="1967" y="2100" width="60" height="30" as="geometry" />
        </mxCell>
        <mxCell id="cHn_flzbuspQxcIcsFyM-123" value="&lt;span style=&quot;font-size: 24px;&quot;&gt;&lt;b style=&quot;&quot;&gt;&lt;font style=&quot;color: rgb(204, 102, 0);&quot;&gt;Transport&lt;/font&gt;&lt;/b&gt;&lt;/span&gt;&lt;div&gt;&lt;b style=&quot;font-size: 24px;&quot;&gt;&lt;font style=&quot;color: rgb(204, 102, 0);&quot;&gt;Network&lt;/font&gt;&lt;/b&gt;&lt;span style=&quot;font-size: 24px;&quot;&gt;&lt;b style=&quot;&quot;&gt;&lt;font style=&quot;color: rgb(204, 102, 0);&quot;&gt;&lt;/font&gt;&lt;/b&gt;&lt;/span&gt;&lt;/div&gt;" style="text;html=1;align=center;verticalAlign=middle;whiteSpace=wrap;rounded=0;" vertex="1" parent="1">
          <mxGeometry x="2269.5" y="1664" width="60" height="30" as="geometry" />
        </mxCell>
      </root>
    </mxGraphModel>
  </diagram>
</mxfile>
